<?xml version="1.0" encoding="UTF-8"?><svg id="Layer_2" xmlns="http://www.w3.org/2000/svg" viewBox="0 0 507.32 157.75"><defs><style>.cls-1{fill:#158e4e;}.cls-1,.cls-2{stroke-width:0px;}.cls-2{fill:#158e4e;}</style></defs><g id="Layer_1-2"><path class="cls-1" d="m0,90.4v67.35h150.49v-67.35H0Zm147.11,21.4h-44.99v-18.02h44.99v18.02ZM3.38,132.97v-17.79h22.92v17.79H3.38Zm26.3-17.79h43.87v17.79H29.68v-17.79Zm22.29-3.38v-18.02h46.77v18.02h-46.77Zm46.77,24.56v18.02h-46.77v-18.02h46.77Zm-21.81-3.38v-17.79h45.88v17.79h-45.88Zm49.26-17.79h20.91v17.79h-20.91v-17.79Zm-77.61-21.4v18.02H3.38v-18.02h45.21ZM3.38,136.36h45.21v18.02H3.38v-18.02Zm98.74,18.02v-18.02h44.99v18.02h-44.99Z"/><path class="cls-1" d="m102.32,11.08c-1.24,0-2.25,1.01-2.25,2.25s1.01,2.25,2.25,2.25,2.25-1.01,2.25-2.25-1.01-2.25-2.25-2.25Z"/><path class="cls-1" d="m111.24,5.25c-.37-.38-.74-.76-1.12-1.12-2.23-2.11-9.61-6.19-12.98-2.88-2.54,2.49-8.82,8.77-14.55,14.49-4.26,4.25-8.21,8.2-10.09,10.06-1.46,1.44-.25,3.72.92,5.93.23.44.54,1.02.67,1.37-1.45,1.52-3.62,3.71-5.47,5.58l-.94.96-2.23-2.24c-1.57-1.59-3.14-3.18-4.76-4.72-1.71-1.62-3.91-2.3-6.02-1.84-2.09.45-3.78,1.92-4.66,4.06-4.77,11.65-9.51,23.32-14.24,34.99l-1.12,2.76c-1.07,2.63-.58,5.12,1.37,7,1.19,1.15,2.61,1.73,4.15,1.73.87,0,1.77-.18,2.7-.56l9.73-3.95c9.17-3.72,18.34-7.44,27.49-11.17,2.55-1.04,4.19-2.8,4.62-4.95.44-2.2-.42-4.53-2.44-6.54-1.69-1.69-3.37-3.4-5.11-5.16l-1.22-1.24.92-.91c1.87-1.86,4.07-4.04,5.55-5.46.36.17.95.49,1.41.74,2.58,1.4,5.01,2.72,6.52,1.2,2.19-2.22,7.44-7.46,12.59-12.61,4.84-4.84,9.61-9.6,11.67-11.69,3.58-3.62-.95-11.36-3.36-13.82Zm-31.37,51.33c1.19,1.19,1.73,2.43,1.52,3.49-.2,1.01-1.12,1.89-2.59,2.49-9.16,3.74-18.32,7.45-27.49,11.17l-9.73,3.95c-1.72.7-2.63.11-3.24-.47-.95-.92-1.13-1.93-.58-3.29l1.12-2.76c4.73-11.67,9.47-23.33,14.24-34.98.45-1.1,1.24-1.82,2.24-2.03.19-.04.38-.06.58-.06.83,0,1.68.37,2.4,1.05,1.59,1.52,3.14,3.08,4.69,4.65l2.26,2.27c.24.24.49.47.79.75l.51.48,5.74,5.74.03-.03,2.39,2.43c1.74,1.77,3.43,3.48,5.13,5.18Zm32.32-39.89c-2.06,2.08-6.82,6.84-11.66,11.67-4.87,4.87-9.83,9.82-12.21,12.23-.74-.23-2.15-1-2.88-1.4-1.1-.6-1.8-.97-2.37-1.13-.91-.25-2.06.03-2.73.67-1.49,1.42-3.86,3.77-5.85,5.75l-.95.94-3.43-3.43.92-.93c2.01-2.03,4.39-4.44,5.83-5.96.92-.96.64-2.41.57-2.69-.13-.57-.47-1.23-1.02-2.26-.31-.59-.91-1.71-1.12-2.35,2.01-1.99,5.72-5.7,9.69-9.67,5.72-5.72,11.99-11.98,14.53-14.47,1.13-1.1,6.12.86,8.29,2.92.35.33.69.68,1.02,1.02,2.37,2.43,4.63,7.81,3.37,9.08Z"/><path class="cls-2" d="m207.96,147.26c-2.85.16-6.38.23-10.58.23-3.64,0-6.49-.72-8.56-2.16-2.07-1.44-3.53-3.86-4.37-7.24-.85-3.39-1.27-8.06-1.27-14.02s.42-10.63,1.27-14.02c.85-3.39,2.3-5.8,4.37-7.24,2.07-1.44,4.92-2.16,8.56-2.16,2.63,0,4.91.03,6.82.09,1.91.06,3.72.14,5.41.23,1.69.09,3.51.2,5.46.33l1.03-8.75c-1.88-.5-3.7-.89-5.46-1.18-1.76-.28-3.67-.5-5.74-.66-2.07-.16-4.58-.24-7.53-.24-6.52,0-11.73,1.08-15.62,3.25-3.89,2.16-6.69,5.69-8.42,10.58-1.73,4.89-2.59,11.48-2.59,19.75s.86,14.86,2.59,19.75c1.72,4.89,4.53,8.42,8.42,10.58,3.89,2.16,9.09,3.25,15.62,3.25,4.51,0,8.28-.19,11.29-.56,3.01-.38,5.93-1,8.75-1.88l-1.03-8.65c-2.76.31-5.57.55-8.42.71Z"/><path class="cls-2" d="m272.3,97.55c-2.1-2.57-4.88-4.4-8.33-5.5-3.45-1.1-7.68-1.65-12.7-1.65s-9.06.55-12.51,1.65c-3.45,1.1-6.24,2.93-8.37,5.5-2.13,2.57-3.67,6.02-4.61,10.35-.94,4.33-1.41,9.72-1.41,16.18s.47,11.77,1.41,16.13c.94,4.36,2.48,7.82,4.61,10.39,2.13,2.57,4.92,4.41,8.37,5.5,3.45,1.1,7.62,1.65,12.51,1.65s9.25-.55,12.7-1.65c3.45-1.1,6.22-2.93,8.33-5.5,2.1-2.57,3.62-6.04,4.56-10.39.94-4.36,1.41-9.74,1.41-16.13s-.47-11.85-1.41-16.18c-.94-4.33-2.46-7.78-4.56-10.35Zm-7.76,40.97c-.88,3.48-2.37,5.96-4.47,7.43-2.1,1.47-5.03,2.21-8.8,2.21s-6.6-.74-8.7-2.21c-2.1-1.47-3.59-3.95-4.47-7.43-.88-3.48-1.32-8.29-1.32-14.44s.44-10.96,1.32-14.44c.88-3.48,2.37-5.96,4.47-7.43,2.1-1.47,5-2.21,8.7-2.21s6.69.74,8.8,2.21c2.1,1.47,3.59,3.95,4.47,7.43.88,3.48,1.32,8.29,1.32,14.44s-.44,10.96-1.32,14.44Z"/><rect class="cls-2" x="290.5" y="91.62" width="11.76" height="64.91"/><path class="cls-2" d="m358.32,132.73c0,1.69.05,3.4.14,5.13.09,1.73.2,3.5.33,5.31h-1.41c-.69-1.76-1.43-3.5-2.21-5.22-.78-1.72-1.55-3.28-2.3-4.66l-19.1-38.1c-.56-1.19-1.19-2.08-1.88-2.68-.69-.6-1.69-.89-3.01-.89h-7.81c-2.89,0-4.33,1.47-4.33,4.42v60.48h11.29v-42.52c0-1.57-.05-3.15-.14-4.75-.09-1.6-.2-3.18-.33-4.75h1.22c.44,1.5,1.03,3.09,1.79,4.75.75,1.66,1.44,3.18,2.07,4.56l19.66,39.13c.56,1.19,1.19,2.09,1.88,2.68.69.6,1.69.89,3.01.89h8c2.88,0,4.33-1.47,4.33-4.42v-60.48h-11.19v41.11Z"/><path class="cls-2" d="m401.12,146.94c-1.82,0-3.21-.45-4.19-1.36-.97-.91-1.46-2.27-1.46-4.09v-49.86h-11.66v52.11c0,3.76,1.11,6.87,3.34,9.31,2.23,2.45,5.72,3.67,10.49,3.67,4.52,0,9.08-.05,13.69-.14,4.61-.09,9.05-.33,13.31-.71l-.56-8.94h-22.95Z"/><rect class="cls-2" x="433.48" y="91.62" width="11.76" height="64.91"/><path class="cls-2" d="m504.36,128.12c-1.98-2.95-5.44-4.64-10.39-5.08v-.38c4.01-.38,6.9-1.79,8.65-4.23,1.76-2.45,2.63-5.99,2.63-10.63s-.72-7.9-2.16-10.35c-1.44-2.45-3.81-4.15-7.1-5.13-3.29-.97-7.7-1.46-13.22-1.46-3.45,0-6.48.02-9.08.05-2.6.03-4.99.09-7.15.19-2.16.09-4.44.27-6.82.52v64.91c2.63.19,5.17.34,7.62.47,2.45.13,5.14.2,8.09.24,2.95.03,6.4.05,10.35.05,5.08,0,9.2-.49,12.37-1.46,3.17-.97,5.49-2.68,6.96-5.13,1.47-2.45,2.21-5.89,2.21-10.35,0-5.2-.99-9.28-2.96-12.23Zm-22.15-28.22c3.01,0,5.36.24,7.05.71,1.69.47,2.9,1.4,3.62,2.77.72,1.38,1.08,3.36,1.08,5.93s-.35,4.55-1.03,5.93c-.69,1.38-1.8,2.34-3.34,2.87-1.54.53-3.65.8-6.35.8h-12.04v-19c.7,0,1.42,0,2.16,0h8.84Zm12.18,44.54c-.72,1.47-1.93,2.48-3.62,3.01-1.69.53-4.01.8-6.96.8-4.73,0-8.93-.02-12.6-.07v-21.28h12.13c3.13,0,5.56.33,7.29.99,1.72.66,2.96,1.79,3.72,3.39.75,1.6,1.13,3.9,1.13,6.91,0,2.7-.36,4.78-1.08,6.26Z"/></g></svg>
